<?xml version="1.0" encoding="UTF-8"?>
<svg version="1.1" xmlns="http://www.w3.org/2000/svg" width="1280" height="720">
<path d="M0 0 C422.4 0 844.8 0 1280 0 C1280 237.6 1280 475.2 1280 720 C857.6 720 435.2 720 0 720 C0 482.4 0 244.8 0 0 Z " fill="#FEFEFE" transform="translate(0,0)"/>
<path d="M0 0 C0.6811084 0.09120117 1.3622168 0.18240234 2.06396484 0.27636719 C18.67843563 2.54143496 34.71561437 8.44386987 45.37890625 22.03125 C53.39773603 33.62197354 54.36001733 44.1885619 53 58 C50.51575732 70.2622888 42.91268505 79.72463483 33 87 C20.92359813 94.98439793 7.1141541 98.05512417 -7 100 C-8.22090332 100.17418457 -9.44180664 100.34836914 -10.69970703 100.52783203 C-15.08038772 101.06851787 -19.40293349 101.14448324 -23.8125 101.1328125 C-25.03223511 101.13424759 -25.03223511 101.13424759 -26.27661133 101.13571167 C-27.98421303 101.13638773 -29.69181739 101.13457381 -31.39941406 101.13037109 C-33.99289802 101.12501467 -36.58620884 101.13033571 -39.1796875 101.13671875 C-40.84895871 101.13605787 -42.51822981 101.13477649 -44.1875 101.1328125 C-44.95231689 101.13483673 -45.71713379 101.13686096 -46.50512695 101.13894653 C-51.41773675 101.11785977 -56.13542979 100.69346294 -61 100 C-60.05215918 111.99433539 -60.05215918 111.99433539 -54 122 C-42.30077118 131.21255063 -27.43466375 131.11791405 -13.203125 129.7265625 C-10.7468051 129.27764886 -8.40240089 128.68491024 -6 128 C-5.35111816 127.81743652 -4.70223633 127.63487305 -4.03369141 127.44677734 C5.15406765 124.85276613 5.15406765 124.85276613 14.21484375 121.85546875 C16.9157068 121.0258909 19.00385511 120.75986781 21.8125 120.8125 C22.58207031 120.81894531 23.35164062 120.82539063 24.14453125 120.83203125 C26 121 26 121 27 122 C28.58029322 132.56538896 24.20229503 142.20800518 18.3125 150.75 C5.00358633 167.82605496 -14.9822516 177.83927806 -36.23583984 180.63378906 C-42.43366784 181.23676883 -48.59063505 181.24968592 -54.8125 181.1875 C-56.05708984 181.18685547 -57.30167969 181.18621094 -58.58398438 181.18554688 C-80.77237619 181.07971989 -101.19569144 175.16200266 -118 160 C-118.70769531 159.38511719 -119.41539062 158.77023437 -120.14453125 158.13671875 C-132.4390198 146.78253525 -138.5185051 129.93003581 -139.40625 113.46875 C-140.20321153 82.86132711 -131.63853493 51.81945409 -110.234375 29.234375 C-80.62166932 -0.37833068 -39.86762077 -5.88624352 0 0 Z " fill="#DAB8C9" transform="translate(506,280)"/>
<path d="M0 0 C0.64710938 0.37769531 1.29421875 0.75539063 1.9609375 1.14453125 C9.37839445 5.89371749 15.31866234 13.64053554 18 22 C18.6875 25.25 18.6875 25.25 19 29 C19.08765625 29.81339844 19.1753125 30.62679687 19.265625 31.46484375 C19.83463259 40.47844133 16.76782351 47.52388409 10.984375 54.39453125 C2.43825973 62.67934443 -6.82652549 64.58737547 -18.3581543 64.47753906 C-24.78547881 64.23609899 -30.23930796 62.94206772 -36 60 C-37.0725 59.46375 -38.145 58.9275 -39.25 58.375 C-44.48777766 53.85146474 -49.21038183 48.03659741 -50 41 C-50.12922138 37.97739112 -50.13964885 34.96248803 -50.125 31.9375 C-50.12886719 31.13505859 -50.13273438 30.33261719 -50.13671875 29.50585938 C-50.13542969 28.72919922 -50.13414062 27.95253906 -50.1328125 27.15234375 C-50.13168457 26.45101318 -50.13055664 25.74968262 -50.12939453 25.02709961 C-49.99448344 22.91357741 -49.57473344 21.03439656 -49 19 C-66.12418221 26.98845225 -79.14605655 35.51512221 -86 54 C-88.94564114 62.83692341 -89.22605528 71.64270387 -89.3125 80.875 C-89.34150391 81.89980469 -89.37050781 82.92460937 -89.40039062 83.98046875 C-89.47766708 93.33686452 -87.27114273 101.50324617 -80.765625 108.46875 C-73.47080761 114.7952288 -64.48485877 117.32030328 -55 118 C-54.00226563 118.07734375 -53.00453125 118.1546875 -51.9765625 118.234375 C-37.97624124 118.81104727 -25.54085963 114.13025304 -13.1484375 108.0390625 C-9.37464869 106.79361855 -6.84581205 107.17658936 -3 108 C-1.74583572 120.59738348 -7.48358653 130.31669255 -15 140 C-15.44859375 140.61359375 -15.8971875 141.2271875 -16.359375 141.859375 C-26.8913675 155.36510655 -44.77873055 163.86797424 -61 168 C-62.22380371 168.3400708 -63.44760742 168.6801416 -64.70849609 169.03051758 C-70.86889273 170.56293575 -77.10877009 170.33405762 -83.41577148 170.31567383 C-85.66505242 170.31253136 -87.91299199 170.33596307 -90.16210938 170.36132812 C-112.80279473 170.46142743 -133.9954127 162.77975417 -150.3046875 146.8203125 C-162.11439618 134.46290718 -168.2610973 117.9525392 -169 101 C-169.07605469 99.78957031 -169.15210938 98.57914062 -169.23046875 97.33203125 C-170.37202812 71.7704841 -161.05428806 47.29389596 -146 27 C-145.47792969 26.28585937 -144.95585938 25.57171875 -144.41796875 24.8359375 C-140.09923352 19.3846233 -134.4691855 15.23030923 -129 11 C-128.25234375 10.401875 -127.5046875 9.80375 -126.734375 9.1875 C-114.01708542 -0.41716626 -98.42669563 -6.42512899 -83 -10 C-82.31180176 -10.16226074 -81.62360352 -10.32452148 -80.91455078 -10.49169922 C-53.90453438 -16.58262449 -23.95888568 -14.48942134 0 0 Z " fill="#DAB8C9" transform="translate(908,291)"/>
<path d="M0 0 C3.96243536 3.67250106 4.32465378 7.12150632 4.5625 12.3125 C4.34935503 20.97730649 1.76408793 28.8459406 -1 37 C-0.40050537 36.98428955 0.19898926 36.9685791 0.81665039 36.95239258 C3.56516877 36.8895587 6.31353542 36.85085765 9.0625 36.8125 C10.00544922 36.78736328 10.94839844 36.76222656 11.91992188 36.73632812 C18.61357459 36.66635963 23.90642375 37.00581576 28.9453125 41.8828125 C30.91853637 45.84387672 29.85300744 49.80160399 29 54 C27.14122256 59.36980148 23.72831077 62.95184626 19 66 C13.1360927 68.77813096 6.96479268 68.22207574 0.625 68.125 C-0.49261719 68.11597656 -1.61023438 68.10695313 -2.76171875 68.09765625 C-5.50803462 68.07418346 -8.25390472 68.04134728 -11 68 C-12.77288345 73.88936282 -14.52671948 79.78344385 -16.25 85.6875 C-18.26096934 92.55772664 -20.34048538 99.40560117 -22.4375 106.25 C-25.04026237 114.74627618 -27.52025173 123.27046769 -29.93017578 131.82324219 C-31.53589819 137.48420509 -33.28057084 143.07402364 -35.23828125 148.625 C-37.16619394 154.6361329 -37.71569027 160.72320291 -37 167 C-34.81381363 170.16620095 -33.63108389 170.7896387 -30 172 C-27.89758584 172.09543669 -25.79207357 172.12985484 -23.6875 172.125 C-22.02267578 172.12886719 -22.02267578 172.12886719 -20.32421875 172.1328125 C-17.12593533 172.00503149 -14.14761736 171.55521066 -11 171 C-9.41974829 170.87079703 -7.83518556 170.78279694 -6.25 170.75 C-5.11304688 170.71132813 -5.11304688 170.71132813 -3.953125 170.671875 C-2.98632812 170.83429688 -2.98632812 170.83429688 -2 171 C0.39251268 174.58876902 0.55967086 175.76249208 0 180 C-6.61655795 195.22450712 -22.96584818 203.75051809 -37.515625 209.68359375 C-51.04885743 214.79648537 -62.98187725 216.18545685 -77.375 216.25 C-79.08816406 216.2809375 -79.08816406 216.2809375 -80.8359375 216.3125 C-95.74970492 216.38028985 -108.22388183 212.41106796 -119.4375 202.3125 C-126.73272019 194.30146488 -128.85632689 185.23947227 -128.63955688 174.66017151 C-128.31957122 168.87590827 -127.34354756 163.76215422 -125.57421875 158.2578125 C-125.31434174 157.42025421 -125.05446472 156.58269592 -124.78671265 155.71975708 C-122.3550404 147.9524867 -119.79677785 140.22489859 -117.2578125 132.4921875 C-116.94636134 131.54302334 -116.94636134 131.54302334 -116.62861824 130.57468414 C-115.99228695 128.6356311 -115.35558008 126.69670178 -114.71875 124.7578125 C-114.50661834 124.11163342 -114.29448668 123.46545433 -114.07592678 122.79969406 C-112.98682186 119.48524425 -111.8922475 116.17274771 -110.78808594 112.86328125 C-109.91055623 110.23196675 -109.04100393 107.59827209 -108.18014526 104.9614563 C-107.37935224 102.50896706 -106.56760266 100.06001783 -105.74295044 97.615448 C-103.3372705 90.17964289 -101.40367525 82.9149999 -103.890625 75.2578125 C-107.57061821 69.48403004 -111.89230893 64.78416173 -116.86035156 60.10986328 C-120.56897967 56.60595523 -122.66835884 54.1793562 -123.4375 49.125 C-122.86967951 45.06913936 -121.08747204 42.56331981 -118 40 C-113.8797782 36.96296463 -110.85631475 36.9223944 -105.94921875 37.3671875 C-90.809155 38.63690152 -90.809155 38.63690152 -77.6558075 32.2336731 C-72.0355197 27.15578611 -67.11284565 21.45162337 -62.23587036 15.67045593 C-49.11076157 0.41672837 -18.8389305 -14.20788076 0 0 Z " fill="#DAB8C9" transform="translate(706,247)"/>
<path d="M0 0 C2.53863631 3.80795447 2.38410421 6.95490584 2.375 11.375 C2.37258301 12.5813208 2.37258301 12.5813208 2.37011719 13.81201172 C2.22355996 21.03211057 0.7337211 27.30285626 -2 34 C-2.30035156 34.76828125 -2.60070312 35.5365625 -2.91015625 36.328125 C-5.76404977 42.80189213 -10.23647929 47.3836011 -16.3125 50.9375 C-20.97348873 52.28049675 -25.187329 52.26145295 -30 52 C-27.96075177 34.06867936 -21.45847588 13.6417346 -8 1 C-5.21136993 -0.39431504 -3.07921132 -0.25660094 0 0 Z " fill="#F7F6FE" transform="translate(477,307)"/>
</svg>
